<svg xmlns="http://www.w3.org/2000/svg" xmlns:xlink="http://www.w3.org/1999/xlink" width="842" height="293" viewBox="0 0 842 293">
  <defs>
    <clipPath id="clip-Artboard_1">
      <rect width="842" height="293"/>
    </clipPath>
  </defs>
  <g id="Artboard_1" data-name="Artboard 1" clip-path="url(#clip-Artboard_1)">
    <g id="Group_1" data-name="Group 1" transform="translate(-172.297 -31.98)">
      <path id="Path_1" data-name="Path 1" d="M331.582,211.436H328.41v293.77h3.172" transform="translate(107.681 -180)" fill="#122678" fill-rule="evenodd"/>
      <path id="Path_2" data-name="Path 2" d="M199.624,284.305q-.182,2.449-.181,4.956c0,10.958-8.329,18.42-14.956,25.792-2.283,2.536-6.583,6.257-4.449,8.893,5.639,6.316,6.751,15.622-.4,21.478.809,2.846,4.493,6,6.2,7.994-1.816,1.279-8.533,4.562-8.533,7.8a11.292,11.292,0,0,0,2.71,1.19c17.908,6.288-6.161,28.773,18.143,30.816,13.006.046,27.236-5.027,36.8,2.739,8.126,6.6,6.288,13.145,10.2,23.665h-5.084c-5.615-12.051-3.123-23.175-20.125-24.566-12.05-.983-21.952,4.262-32.6-2.445-6.271-4.446-8.087-4.632-5.191-22.225.892-5.416-4.437-3.435-9.079-7.514-1.475-2.187-1.45-7.639,5.13-11.541-1.855-2.183-4.344-4.76-3.677-9.111,12.944-8.947-8.673-19.674,5.794-30.787,5.4-4.147,11.482-11.467,12.791-18.109,1.066-5.385.46-11.136,1.735-18.028a79.97,79.97,0,0,1,2.852-8.6,47.471,47.471,0,0,0,1.911,17.6" transform="translate(0 -141.877)" fill="#122678" fill-rule="evenodd"/>
      <path id="Path_5" data-name="Path 5" d="M313.9,384.193a7.671,7.671,0,0,1,1.6-5.039l.052.052a30.332,30.332,0,0,1,4.459-3.954c-1.458-3.883,3.021-7.653,5.73-11.367a4.108,4.108,0,0,0,1.881.343c-1.855,3.373-3.944,6.583-4.292,8.76,4.527-2.594,10.308-4.334,15.847-6.266,1.693-4.306,4.581-5.946-1-9.736-.022-4.138,14.285-18.351-.095-16.218-4.354,4.885-8.788,8.93-9.481,9.914,2.639,2.349,3.949,10.767,2.379,6.059-2.778-8.325-13.942-1-18.739.907-4.868,1.931-7.278.242-.9-2.665,3.02-1.379,5.069-2.895,1.762-6.759-4.289-5.019,3.214-2.962,3.714,4.4,2.851-.972,18.03-3.64,8.51-8.912,3.9-.946,5,2.413,5.47,1.972,2.251-2.1,6.105-5.431,9.074-8.53.336-.35-3.52-2.5-3.192-2.847s4.861,1.063,5.2.74c12.9-12.325.811.544-2.264,4,4.057-1.24,7.8.73,7.646,5.382a32.1,32.1,0,0,1,4.926-2.016c-2.518,3.018-9.28,7.871-9.255,12.235,3.707,3.677,1.479,8.373.593,10.466,6.433-2.552,11.923-5.786,13.8-11.549h0a62.357,62.357,0,0,1,3.109-6.068c-2.709-1.732-4.395-8.4-6.225-11.244,3.123-3.6,6.632-5.412,5.463-20.541,1.5,8.481,4.123,13.065-.968,19.992-1.62,1.171,3.309,5.825,3.456,7.9,3.16-5.618,6.438-11.485,6.4-17.793h0c-.444-2.386.454-6.661-.182-11.156-.47-3.331-5.193-25.691-10.591-15.95l-.1-.01c-2.286,4.926-21.561,8-9.812,3.717,12.54-4.238,6.457-14.355.514-3.657-2.285-3.947,1.506-5.809-2.09-10.657,2.644,1.406,8.961,4.606,11.227.875,6.98-11.494-14.829-25.25-22.562-30.784L330.9,260.25c3.836,5.419,5.566,9.676,7.452,15.961l2.54-.014,1.789,2.276c-3.288.566-7.876,2.651-8.763,6.277a14.88,14.88,0,0,1-.924-2.545l.051.1a17.345,17.345,0,0,1,.147-1.886c3.479-5.385.238-11.381-2.276-16.607-.034-6.563-13.378-.85-16.225-.948,4.4,5.6,8.555,4.461,15.049,6.742l.877,2.673c-2.781-2.291-3.866-2.56-7.43-1.947,2.271,2.957,2.526,4.659,2.546,8.192,4.442,1.455,3.6,1.218,4.48,5.554-1.132,3.471,3.407,10.449,5.33,13.322.417-1.345,3.506-6.342,3.5-6.685l-.015.047a4.117,4.117,0,0,0,.079-1.114l-.079.164c1.323-2.9,2.195-9.3,6.708-9.327a42.722,42.722,0,0,0-3.613-10.645c5.035,4.5,6.46,5.162,5.9,11.651a18.409,18.409,0,0,1,6.1.983l0,.252c-3.881,1.97-8.743,1.889-11.708,5.446-1.563,1.872-2.232,12.207-4.387,14.747-.33,1.9-5.918,4.943-7.345,5.9a56,56,0,0,0,7.31,4c-3.361.275-5.968.475-8.621-2.149-4.147-1.855-11.375,1.474-15.6,2.8,2.132,3.182,14.806,12.011,6.71,9.03-4.444-1.637-5.929-3.047-9.767-8.1-10.564,4.485-18.145,9.571-30.4,8.4-5.341-1.073-29.522-.87-22.264,10,1.308,1.962,13.062,7.31,5.279,5.833-6.359-1.7-8.028-2.288-8.851-5.3-3.114-11.4,8.577-13.418,17.207-14.77l-2.232-6.74c8.189,8.1,19.855,13.285,25.353,2,1.372-2.817,7.766-16.56,4.738-5.764a45.737,45.737,0,0,0-1.354,8.645l13.462-5.108c2.92-7.046,4.226-12.089,3.2-.86,5.727-1.72,17.53-3.189,19.591-9.84-8.545-6.926-1.555-21.747-14.875-19.77,1.718-3.19,2.55-4.032,2.751-7.889-3.452.019-7.442-5.9-9.189-8.586-9.7,2.1-14.231,12.252-16.343,21.511l-1.94.475-.642-5.338c4.383-6.039,11.374-15.029,3.658-21.9,1.207.211,3.494.35,4.229,1.428,6,8.792,7.156-6.823,9.965-6.838l.786,4.314,3.309,1.252c2.327-7.592-1.752-12.244-9.714-11.631-1.7.008-3.981,3.577-5.568,3.586-8.177,2.773-16.955,4.1-20.848,12.842-4.172,9.375-6.712,21.012-3.809,30.975-4.287-.752-3.788-5.2-6.57-7.66a28.623,28.623,0,0,0-4.917-2.945c2.563-.754,4.086.2,6.686.789,1.347-4.273,1.747-8.755,3.1-13.036,2.42-7.641,7.6-13.31,4-20.845,5.446.711,26.96-2.3,28.173-9.829,3.8,7.506,9.953,2.555,15.24,6.039l-3.8,2.307c.008,1.8,1.443,4.341,2.065,6.085,5.169.355,7.268.563,12.1-.733,4.135-15.394-30.6-21.859-47.977-22.371-28.481-.84-56.869,8.39-75.429,28.8,4.649-.235,6.114-1.254,9.331-4.664.042,7.668-10.568,8.451-14.934,12.873a64.762,64.762,0,0,0-6.725,10.215c7.536,2.648,8.332-9.545,10.661-9.561-.539,4.958-1.2,6.232-4.148,10.2,1.73.683,2.981.988,2.993,3.325-4.682-2.778-4.775-1.845-9.483.1-1.751,5.125-1.416,11.443-.206,16.671,2.5-5.755,7.367-8.542,11.816-12.805,2.227-2.134,1.985-3.55,2.369-6.583.49-3.876,1.372-7.678,5.417-9.322-1.928,1.854-2.161,5.176-2.538,7.665l2.6-.159c-2.056,1.252-1.452,1.566-3.15,3.385.022,4.212-6.071,8.763-9.023,10.97,3.266.529,7.34.554,8.565,3.327.747,1.691-4.613-.764-6.761-.429-2.954-1-7.442,3.952-6.982,7.629-.97,18.743,17.195,22.737,32.943,22.979,2.8-8,7-12.629,14.356-17.006l.3-.632c-4.246-8.351-14.49-8.2-22.384-5.314,4.3-3.728,6.014-5.475,1.916-10.88,4.148,1.046,3.951,5.989,8.868,7.07,13.589,2.987,17.4-7.415,15.527-18.565,8.868,11.938-9.777,18.559-.106,25.994,10.519-5.742,11.729-.7,7.116-16.835-.35-4.285-.247-12.288-2.707-16.051l-4.023-.314c-5.642,6.347-12.54,12.207-10.94,21.017-1.313-1.083-4.037-3.133-4.047-5.007l-12.4-1.443c-5.814.032-4.567,18.133-1.076,18.113,3.589,1.47,9.785,3.969,6.252,10.2-.532-13.434-12.712.313-17.44-7.776,4.417,1.49,5.8-1.041,6.223-4.045.375-2.683.019-4.948.133-7.7a26.112,26.112,0,0,1,.7-5.267c.473-1.923,1.1-3.238,1.364-4.625.433-2.247-.206-3.966-.228-5.982a8.2,8.2,0,0,1,.331-2.447c11.947,17.993,34.175-3.842,25.9-12.044l-5.35,2.041,0,.039a28.657,28.657,0,0,0-12.489,13.946c-.037-6.855-1.639-5.967-7.421-9.686a27.492,27.492,0,0,1,7.881,2.107c10.571-6.81,3.045-9.625,2.251-18.258,5.071,10.73,7.195,5.9,15.948,6.789.728-5.062,4.2-6.3,1.612-11.411,2.957,1.624,2.989,1.132,3.707,4.172a7.484,7.484,0,0,1,5.2,1.649c-12.161.066-5.324,6.534-5.3,11.931,12.616,4.231,13.77-2.411,17.511-14.01.722-12.867-21.478-11.21-28.528-3.048-2.3,2.661-.683,4.409-3.724,2.2-8.942-6.494-18.635,2.842-9.387,13.145l0,.45c-7.144-2.107-10.258-2.072-17.247.482,6.012-5.113,10.789-4.54,12.023-11.867,1.114-6.615,9.158-8.337,15.6-6.266a59.449,59.449,0,0,1,16.071-6.661c6.793-1.664,8.831-.546,15.142,2.178l1.152-3.863c8.1-3.38,18.78-4.858,27.376-2.443-11.026,1.8-23.469-1.163-24.305,12.991l-6.092,16.208c-10.046,9.076-10.541,23.755-2.356,32.124,4.329,4.429,15.542-3.292,19.518-6.451.108-6.144-1.484-11.519-1.516-17.516,4.41-8.275,8.667-11.259,5.578-19.763l4.453,5.973,4.572-.814,1.749,2.2c-16.669,1.94-10.478,18.092-10.422,28.633,10.034,1.823,16.445-5.938,19.79-14.539-2.011-4.463-2.156-5.453.551-9.488-.1,2.687,1,4.24,1.014,6.48l6.943-.351c-6.646,4.583-11.357,12.849,2.579,10.666,4.861-.762,4.324.634,1.261,2.531-7.712,4.782-21.565,3.417-27.692,9.571l-12.1,4.174c-14.348,7.536-34.525,3.415-41.213,22.176-1.321,3.7,2.548,6.615,3.451,9.464,2.548,8.053,11.058,15.392,28.092,12.1a140.878,140.878,0,0,1,19.757,3.309c2.247-9.814,10.375-12.981,18.993-16.455-10.808,1.228-27.045,13.2-35.046,2.531-10.338-13.788-4.045-8.635,1.21-2.5,5.858,6.833,23.457-1.673,30.74-3.033-5.6-9.851-2.139-6.83,3.18-.855,10.967-.061,14.491-1.524,23.6-7.6-7.146-7.068-4.371-4.784,2.947-1.406,2.807-2.558,9.829-1.874,11.879-6.046a45.335,45.335,0,0,1,4.959-8.087c.032,6.081-4.948,14.265-11.228,13.88-6.533,7.367-11.313,10.74-21.225,11.871-8.542,4.138-21.119,7.046-24.241,15.149-1.316,3.418,1.577,9.064,3.077,14.03l.063-.1c1.473,3.962,3.32,5.186,6.142,8.63,1.274-1.827,2.415-3.986,4.385-5.064,13.319-7.271,7.376-1.284,2.141,2.249-6.232,4.209-1.328,10.554-.5,15.431l1.887.142v-.074m23.325-128.486c12.555,9.515,24.774,18.268,23.8,28.594,5.024,12.607,11.178,24.458,10.5,39.044-.872,18.608-8,37.876-25.892,46.913-23.922,12.085-29.652,13.763-24.905,42.847.777,4.755-.776,9.189.73,13.812,3.309,10.161,6.722,13.912,15.482,17.759L310.3,444.4l-29.534.733c4.228-4.488,12.677-6.1,13.471-9.483,3.368-14.368,10.716-31.212,2.168-44.071-1.009-1.516-1.945-3.114-2.83-4.763-6.786-10.4-13.148-29.013-28.361-28.136a37.282,37.282,0,0,1-9.643-.36c-12.834-2.648-16.651-10.507-23.319-23.383-13.292-.99-26.1-1.823-34.187-14.067-6.382-9.662-8.336-23.212-6.237-34.057,1.764-9.123,7.871-19.4,14.331-25.928l0,0c20.108-20.4,51.685-33.016,81.614-30.89C303.376,231.1,334.581,237.25,337.224,255.708Z" transform="translate(12.913 -167.36)" fill="#122678" fill-rule="evenodd"/>
      <path id="Path_6" data-name="Path 6" d="M26.384,45.9a44.733,44.733,0,0,1-9.548-.924q-4.209-.924-9.24-2.464a18.64,18.64,0,0,0-4.62-1.232L3.8,22.7h6.571l1.745,13.346a15.316,15.316,0,0,0,5.7,2.926,27.964,27.964,0,0,0,8.675,1.283q7.8,0,11.858-3.491T42.4,27.112a10.962,10.962,0,0,0-2.207-6.879,19,19,0,0,0-5.852-4.928Q30.7,13.253,24.33,10.481A81.542,81.542,0,0,1,14.32,5.245,25.658,25.658,0,0,1,6.929-1.891,18.211,18.211,0,0,1,3.8-12.619,17.6,17.6,0,0,1,6.826-22.732a20.278,20.278,0,0,1,8.727-7.033,32.11,32.11,0,0,1,13.3-2.567,43.571,43.571,0,0,1,8.367.719q3.645.719,8.265,1.951a19.1,19.1,0,0,0,3.491.924L48.354-11.49H42.091L40.038-24.118a10.508,10.508,0,0,0-4.261-1.951,25.517,25.517,0,0,0-7.033-.924q-7.084,0-10.728,2.977t-3.645,8.624a10.7,10.7,0,0,0,2.207,6.879A19.951,19.951,0,0,0,22.072-3.79q3.285,1.951,10.472,5.339Q39.217,4.731,43.426,7.3a25.024,25.024,0,0,1,7.238,6.725,16.37,16.37,0,0,1,3.029,9.907A20.022,20.022,0,0,1,50.664,34.4a22.587,22.587,0,0,1-9.24,8.265A32.228,32.228,0,0,1,26.384,45.9Zm32.75-6.16,6.263-.924V-4.3L58-6.151V-11.7l14.681-1.848,1.848,1.335L75.15-8.1l-.1,3.285a35.729,35.729,0,0,1,9.8-6.006,28.218,28.218,0,0,1,11.139-2.721,18.635,18.635,0,0,1,8.932,1.848,11.771,11.771,0,0,1,5.133,5.749,34.654,34.654,0,0,1,9.189-5.185,29.289,29.289,0,0,1,11.037-2.413q6.365,0,9.958,2.413a13.02,13.02,0,0,1,5.082,7.495,50.027,50.027,0,0,1,1.489,13.6V38.816l7.392.924v5.031H129.767V39.74l6.365-.924V10.275a41.249,41.249,0,0,0-.873-9.5,8.843,8.843,0,0,0-3.285-5.287q-2.413-1.745-6.93-1.745a19.722,19.722,0,0,0-7.187,1.489,26.27,26.27,0,0,0-6.468,3.542,53.72,53.72,0,0,1,.924,11.4V38.816l7.289.924v5.031H94.759V39.74l6.776-.924V10.07a45.533,45.533,0,0,0-.77-9.548A8.623,8.623,0,0,0,97.839-4.56q-2.156-1.694-6.571-1.694a19.382,19.382,0,0,0-7.854,1.848A32.925,32.925,0,0,0,76.176-.094v38.91l6.879.924v5.031H59.134Zm99.277-10.369q0-9.651,9.651-14.219T192.5,10.275V7.4a22.557,22.557,0,0,0-1.027-7.6,7.162,7.162,0,0,0-3.542-4.055,16.018,16.018,0,0,0-7.135-1.283A27.749,27.749,0,0,0,171.4-4.047,64.686,64.686,0,0,0,163.133-.4l-2.567-5.339a28.854,28.854,0,0,1,4.928-2.977A50.137,50.137,0,0,1,173.811-12a32.292,32.292,0,0,1,9.445-1.437q7.289,0,11.55,2a11.931,11.931,0,0,1,6.109,6.417q1.848,4.415,1.848,11.806V39.74h6.057v4.517q-2.053.513-5.185,1.027a34.493,34.493,0,0,1-5.493.513q-2.875,0-3.9-.873t-1.027-3.85V37.687a35.869,35.869,0,0,1-7.546,5.647A19.926,19.926,0,0,1,175.556,45.9a17.972,17.972,0,0,1-12.268-4.261Q158.411,37.379,158.411,29.371Zm21.56,9.548a14.814,14.814,0,0,0,6.16-1.643,33,33,0,0,0,6.365-3.9V15.716q-11.19,0-16.888,3.439t-5.7,8.983q0,5.544,2.721,8.162A10.141,10.141,0,0,0,179.971,38.919Zm33.263.821,7.7-.616V-4.3l-7.392-1.848V-11.7l14.168-1.848h.205l2.259,1.848v1.848l-.308,8.008h.308a26.821,26.821,0,0,1,3.7-4.517,28.494,28.494,0,0,1,6.879-5.082,18.686,18.686,0,0,1,9.137-2.31,9.54,9.54,0,0,1,3.388.513v11.5a7.98,7.98,0,0,0-2.31-.975,12.684,12.684,0,0,0-3.542-.462,26.551,26.551,0,0,0-15.81,5.236V39.021l13.038.821v4.928H213.234ZM274.628,45.8q-5.852,0-8.727-2.669t-2.875-9.137V-5.433h-7.392v-4.62q.513-.1,2.875-.719a13.032,13.032,0,0,0,3.183-1.129,6.275,6.275,0,0,0,2.567-3.7,51.075,51.075,0,0,0,1.951-6.263q1.129-4.312,1.335-5.133H273.6l.205,14.784h17.145v6.776H273.806V26.086a63.181,63.181,0,0,0,.359,8.213q.359,2.361,1.54,3.08a8.292,8.292,0,0,0,4.055.719,29.2,29.2,0,0,0,6.108-.719,27.6,27.6,0,0,0,5.185-1.54l1.54,4.62a27.925,27.925,0,0,1-7.957,3.593A33.332,33.332,0,0,1,274.628,45.8Zm95.17.1q-10.472,0-17.71-4.825a29.719,29.719,0,0,1-10.934-13.6,52.187,52.187,0,0,1-3.7-20.379,45.8,45.8,0,0,1,4.466-20.738,33.517,33.517,0,0,1,12.268-13.808,32.44,32.44,0,0,1,17.556-4.877q16.016,0,24.486,10.113T404.7,5.758a46.376,46.376,0,0,1-4.569,21.1,34.352,34.352,0,0,1-12.525,14.065A32.888,32.888,0,0,1,369.8,45.9Zm1.335-72.892q-9.958,0-15.708,8.675t-5.749,25.41q0,15.4,5.6,24.383t15.656,8.983q9.856,0,15.656-8.932t5.8-25.666q0-15.5-5.544-24.178A17.61,17.61,0,0,0,371.133-26.992Zm38.6,56.363q0-9.651,9.651-14.219t24.434-4.877V7.4a22.556,22.556,0,0,0-1.027-7.6,7.162,7.162,0,0,0-3.542-4.055,16.018,16.018,0,0,0-7.135-1.283,27.749,27.749,0,0,0-9.394,1.489A64.689,64.689,0,0,0,414.457-.4l-2.566-5.339a28.847,28.847,0,0,1,4.928-2.977A50.137,50.137,0,0,1,425.135-12a32.292,32.292,0,0,1,9.445-1.437q7.289,0,11.55,2a11.931,11.931,0,0,1,6.109,6.417q1.848,4.415,1.848,11.806V39.74h6.057v4.517q-2.053.513-5.185,1.027a34.491,34.491,0,0,1-5.493.513q-2.875,0-3.9-.873t-1.027-3.85V37.687a35.866,35.866,0,0,1-7.546,5.647A19.926,19.926,0,0,1,426.88,45.9a17.972,17.972,0,0,1-12.268-4.261Q409.735,37.379,409.735,29.371Zm21.56,9.548a14.814,14.814,0,0,0,6.16-1.643,33,33,0,0,0,6.365-3.9V15.716q-11.191,0-16.888,3.439t-5.7,8.983q0,5.544,2.721,8.162A10.142,10.142,0,0,0,431.295,38.919Zm38.5-70.736-8.008-1.129v-4.415l16.324-1.951h.1l2.259,1.54v50.2l-.205,6.057L503.981-6.049l-7.7-1.437v-4.723h24.845v4.723l-8.11,1.437L497.924,8.633l19.506,30.286,6.365.821v5.031H498.848V39.74l6.468-.924L490.84,15,480.266,25.47l.205,5.236v8.111l7.289.924v5.031H463.326V39.74l6.468-.924Z" transform="translate(490.501 123.557)" fill="#102578"/>
      <path id="Path_7" data-name="Path 7" d="M13.192,21.091a22.367,22.367,0,0,1-4.774-.462q-2.1-.462-4.62-1.232a9.32,9.32,0,0,0-2.31-.616L1.9,9.49H5.184l.873,6.673a7.658,7.658,0,0,0,2.849,1.463,13.982,13.982,0,0,0,4.338.642,8.853,8.853,0,0,0,5.929-1.745A6.029,6.029,0,0,0,21.2,11.7a5.481,5.481,0,0,0-1.1-3.439A9.5,9.5,0,0,0,17.17,5.794q-1.822-1.027-5-2.413a40.771,40.771,0,0,1-5-2.618A12.829,12.829,0,0,1,3.464-2.8,9.105,9.105,0,0,1,1.9-8.168a8.8,8.8,0,0,1,1.514-5.056,10.139,10.139,0,0,1,4.363-3.516,16.055,16.055,0,0,1,6.648-1.283,21.786,21.786,0,0,1,4.184.359q1.822.359,4.132.975a9.55,9.55,0,0,0,1.745.462L24.177-7.6H21.046l-1.027-6.314a5.254,5.254,0,0,0-2.13-.975,12.759,12.759,0,0,0-3.516-.462,8.318,8.318,0,0,0-5.364,1.489A5.246,5.246,0,0,0,7.186-9.554a5.347,5.347,0,0,0,1.1,3.439,9.975,9.975,0,0,0,2.746,2.361q1.643.975,5.236,2.669Q19.608.507,21.713,1.79a12.512,12.512,0,0,1,3.619,3.362,8.185,8.185,0,0,1,1.514,4.954,10.011,10.011,0,0,1-1.514,5.236,11.293,11.293,0,0,1-4.62,4.132A16.114,16.114,0,0,1,13.192,21.091Zm92.245-15.4L93.887-14.379l-3.08-.667v-2.567h13.4v2.567l-4.055.616L107.387-.674l1.643,3.9,1.848-3.9L117.7-14.431l-4.209-.616v-2.567h11.7v2.567l-3.337.616L111.134,5.64V17.447l5.749.565v2.515H99.841V18.011l5.6-.513Zm96.556,15.4a22.367,22.367,0,0,1-4.774-.462q-2.1-.462-4.62-1.232a9.32,9.32,0,0,0-2.31-.616L190.7,9.49h3.285l.873,6.673a7.658,7.658,0,0,0,2.849,1.463,13.982,13.982,0,0,0,4.338.642,8.853,8.853,0,0,0,5.929-1.745A6.029,6.029,0,0,0,210,11.7a5.481,5.481,0,0,0-1.1-3.439,9.5,9.5,0,0,0-2.926-2.464q-1.822-1.027-5-2.413a40.77,40.77,0,0,1-5-2.618,12.829,12.829,0,0,1-3.7-3.568A9.105,9.105,0,0,1,190.7-8.168a8.8,8.8,0,0,1,1.514-5.056,10.139,10.139,0,0,1,4.363-3.516,16.055,16.055,0,0,1,6.648-1.283,21.786,21.786,0,0,1,4.184.359q1.822.359,4.132.975a9.55,9.55,0,0,0,1.745.462L212.978-7.6h-3.131l-1.027-6.314a5.254,5.254,0,0,0-2.13-.975,12.759,12.759,0,0,0-3.516-.462,8.318,8.318,0,0,0-5.364,1.489,5.246,5.246,0,0,0-1.822,4.312,5.347,5.347,0,0,0,1.1,3.439,9.975,9.975,0,0,0,2.746,2.361q1.643.975,5.236,2.669,3.337,1.591,5.441,2.875a12.512,12.512,0,0,1,3.619,3.362,8.185,8.185,0,0,1,1.514,4.954,10.011,10.011,0,0,1-1.514,5.236,11.293,11.293,0,0,1-4.62,4.132A16.114,16.114,0,0,1,201.993,21.091ZM295.11-14.893l-8.829.308-1.8,10.729H281.1l.873-13.757h31.98l.616,13.757h-3.234l-1.694-10.729-8.88-.308V17.5l7.289.513v2.515H288.437V18.011l6.673-.513Zm89.883.462-4.209-.616v-2.567h26.128l.719,7.957H404.7l-1.489-4.979-12.73-.308V-.468l8.573-.154.719-4.261H402.6V6.924h-2.823l-.719-4.415-8.573-.154v15.3l14.476-.513,2.721-6.468,3.029.924-1.489,8.932h-28.49V18.011l4.261-.513Zm97.84,0-5.6-.616v-2.567h13.6l7.238,23.1,1.694,6.519,1.54-6.519,7.187-23.1H522v2.567l-5.647.616,4.107,31.877,4.466.565v2.515H510.142V18.011l4.671-.513L512.5-5.55l-1.078-9.907-2.156,7.392L500.7,18.781H497.36L489.044-5.807l-3.029-9.7-.924,9.959L483.038,17.5l5.082.513v2.515h-13.4V18.011l4.363-.513Z" transform="translate(488.806 233.355)" fill="#102578"/>
    </g>
  </g>
</svg>
